# xmcd CD database file
#
# Track frame offsets:
#	150
#	29817
#	53967
#	101027
#	117560
#	142855
#	174730
#	194845
#	258515
#	279252
#
# Disc length: 4428 seconds
#
# Revision: 0
# Processed by: cddbd v1.5.2PL0 Copyright (c) Steve Scherf et al.
# Submitted via: CDex 1.70beta2
#
DISCID=9d114a0a
DTITLE=Various [CD 2 of 2) - Historical Harlem Jazz Club Turku 1961-63
DYEAR=1900
DGENRE=Jazz
TTITLE0=Navy Blues
TTITLE1=Stompin' At The Savoy
TTITLE2=HJC Blues
TTITLE3=How High The Moon
TTITLE4=Every Time We Say Goodbye
TTITLE5=Village Blues
TTITLE6=There Will Never Be Another You
TTITLE7=Cool Blues
TTITLE8=The Nearness Of You
TTITLE9=Night In Tunisia
EXTD=
EXTT0=
EXTT1=
EXTT2=
EXTT3=
EXTT4=
EXTT5=
EXTT6=
EXTT7=
EXTT8=
EXTT9=
PLAYORDER=
